<svg width="54" height="83" viewBox="0 0 54 83" fill="none" xmlns="http://www.w3.org/2000/svg">
<path d="M51.2812 22.375C51.2812 26.276 50.2786 29.7578 48.2734 32.8203C46.2682 35.8464 43.5339 38.2344 40.0703 39.9844C44.2266 41.9167 47.4167 44.5599 49.6406 47.9141C51.901 51.2682 53.0312 55.0599 53.0312 59.2891C53.0312 66.2891 50.6615 71.849 45.9219 75.9688C41.1823 80.0521 34.875 82.0938 27 82.0938C19.0885 82.0938 12.7448 80.0339 7.96875 75.9141C3.22917 71.7943 0.859375 66.2526 0.859375 59.2891C0.859375 55.0234 1.98958 51.1953 4.25 47.8047C6.51042 44.4141 9.68229 41.8073 13.7656 39.9844C10.3385 38.2344 7.6224 35.8464 5.61719 32.8203C3.64844 29.7578 2.66406 26.276 2.66406 22.375C2.66406 15.5938 4.85156 10.2161 9.22656 6.24219C13.6016 2.26823 19.5078 0.28125 26.9453 0.28125C34.4193 0.28125 40.3438 2.26823 44.7188 6.24219C49.0938 10.2161 51.2812 15.5938 51.2812 22.375ZM39.7422 58.6328C39.7422 54.6953 38.5573 51.5234 36.1875 49.1172C33.8542 46.6745 30.7552 45.4531 26.8906 45.4531C23.026 45.4531 19.9271 46.6562 17.5938 49.0625C15.2969 51.4688 14.1484 54.6589 14.1484 58.6328C14.1484 62.5339 15.2786 65.651 17.5391 67.9844C19.8359 70.3177 22.9896 71.4844 27 71.4844C31.0104 71.4844 34.1276 70.3542 36.3516 68.0938C38.612 65.8333 39.7422 62.6797 39.7422 58.6328ZM38.0469 22.8672C38.0469 19.4036 37.0443 16.5599 35.0391 14.3359C33.0339 12.0755 30.3359 10.9453 26.9453 10.9453C23.5547 10.9453 20.875 12.0208 18.9062 14.1719C16.9375 16.2865 15.9531 19.1849 15.9531 22.8672C15.9531 26.513 16.9375 29.4115 18.9062 31.5625C20.9115 33.7135 23.6094 34.7891 27 34.7891C30.3906 34.7891 33.0703 33.7135 35.0391 31.5625C37.0443 29.4115 38.0469 26.513 38.0469 22.8672Z" fill="black"/>
</svg>
